<?xml version="1.0" standalone="no"?>
<!DOCTYPE svg PUBLIC "-//W3C//DTD SVG 20010904//EN"
 "http://www.w3.org/TR/2001/REC-SVG-20010904/DTD/svg10.dtd">
<svg version="1.0" xmlns="http://www.w3.org/2000/svg"
 width="1024.000000pt" height="1024.000000pt" viewBox="0 0 1024.000000 1024.000000"
 preserveAspectRatio="xMidYMid meet">

<g transform="translate(0.000000,1024.000000) scale(0.100000,-0.100000)"
fill="#000000" stroke="none">
<path d="M5337 8099 c-21 -12 -13 -29 13 -29 24 0 33 15 17 28 -8 7 -18 7 -30
1z"/>
<path d="M5422 8068 c3 -7 13 -15 22 -16 12 -3 17 1 14 10 -3 7 -13 15 -22 16
-12 3 -17 -1 -14 -10z"/>
<path d="M5284 8036 c-4 -9 -4 -20 0 -23 3 -4 12 -1 18 5 9 9 9 15 0 24 -9 9
-13 7 -18 -6z"/>
<path d="M5358 8029 c-27 -15 -25 -85 3 -99 32 -17 62 -8 78 24 12 25 11 31
-6 55 -22 29 -49 36 -75 20z"/>
<path d="M5472 7996 c1 -10 8 -17 13 -17 15 1 12 24 -3 29 -9 3 -13 -2 -10
-12z"/>
<path d="M4982 7975 c-15 -19 -29 -25 -60 -25 -23 0 -44 -5 -48 -12 -4 -7 -7
-71 -5 -143 2 -107 5 -132 18 -142 21 -16 444 -18 474 -3 16 9 19 22 19 85 l0
75 -64 0 c-62 0 -65 -1 -71 -27 -12 -54 -61 -93 -115 -93 -84 0 -141 88 -105
163 20 42 62 67 115 67 35 0 48 -6 77 -35 33 -33 39 -35 98 -35 75 0 91 14 40
36 -21 8 -39 24 -42 35 -4 13 -14 19 -35 19 -21 0 -38 9 -56 30 -26 29 -28 30
-124 30 -91 0 -98 -1 -116 -25z"/>
<path d="M5109 7866 c-37 -18 -55 -59 -41 -90 25 -56 114 -40 120 21 6 60 -32
93 -79 69z"/>
<path d="M6402 7293 c2 -22 23 -43 92 -95 267 -202 458 -433 611 -738 227
-453 289 -918 189 -1420 -94 -474 -367 -929 -741 -1237 -263 -216 -550 -366
-846 -442 -242 -63 -334 -75 -572 -75 -130 -1 -257 4 -310 12 -116 17 -350 74
-463 113 -114 40 -324 143 -437 214 -452 286 -795 740 -938 1240 -181 631 -80
1286 281 1827 50 73 130 178 180 233 86 95 224 222 278 255 17 11 24 24 24 47
0 18 -4 33 -8 33 -19 0 -177 -138 -282 -246 -326 -337 -521 -740 -595 -1233
-19 -125 -19 -451 -1 -591 67 -495 280 -930 625 -1278 196 -199 384 -334 626
-453 333 -163 689 -238 1078 -226 204 6 346 27 551 82 615 166 1147 610 1427
1190 99 206 151 366 196 605 25 137 26 604 0 738 -56 295 -144 530 -285 769
-104 177 -180 273 -331 424 -125 124 -314 279 -341 279 -6 0 -10 -12 -8 -27z"/>
<path d="M5703 7023 l-43 -4 0 -265 0 -264 25 0 25 0 0 240 0 240 175 0 175 0
0 30 0 30 -157 -2 c-87 -1 -177 -3 -200 -5z"/>
<path d="M3520 6875 l-44 -45 77 0 77 0 0 30 c0 25 -4 30 -25 30 -13 0 -28 7
-32 15 -7 12 -17 6 -53 -30z"/>
<path d="M4692 6718 c-1 -101 1 -191 4 -200 3 -11 15 -18 30 -18 l24 0 0 200
0 200 -29 0 -28 0 -1 -182z"/>
<path d="M4180 6660 l0 -200 25 0 25 0 0 200 0 200 -25 0 -25 0 0 -200z"/>
<path d="M6770 6489 c0 -179 3 -360 6 -401 l7 -76 38 -11 c45 -14 79 -53 79
-92 0 -15 5 -31 10 -34 6 -4 10 -82 10 -201 l0 -194 -31 0 c-28 0 -31 -2 -23
-22 5 -13 10 -282 12 -598 l3 -575 45 70 c97 149 201 382 248 556 58 215 71
316 70 569 0 254 -8 322 -64 536 -36 140 -89 282 -152 409 -51 101 -172 291
-227 355 l-30 35 -1 -326z"/>
<path d="M3388 6713 c-176 -246 -289 -497 -352 -783 -36 -165 -46 -262 -46
-453 0 -338 71 -638 223 -942 45 -91 144 -255 153 -255 2 0 1 240 -2 533 -5
441 -4 543 8 600 l15 67 -34 0 -33 0 0 200 c0 110 4 200 9 200 5 0 11 18 15
39 6 42 44 81 77 81 10 0 21 5 24 11 9 13 12 779 4 779 -3 0 -31 -35 -61 -77z"/>
<path d="M4610 6383 c-36 -2 -155 -10 -265 -18 l-200 -14 -28 -33 c-47 -55
-295 -493 -285 -503 2 -3 583 -6 1291 -7 1048 -2 1287 -1 1287 10 0 14 -193
360 -254 454 -20 32 -45 62 -56 68 -24 13 -163 27 -400 40 -166 9 -926 11
-1090 3z"/>
<path d="M3780 5770 c-13 -8 -13 -11 1 -22 9 -7 105 -85 214 -173 261 -211
260 -210 188 -130 -77 88 -278 284 -320 313 -33 24 -59 27 -83 12z"/>
<path d="M6365 5748 c-58 -45 -225 -210 -308 -303 -39 -44 -63 -73 -52 -64 11
8 106 85 210 170 105 85 207 168 228 184 28 21 35 30 25 36 -26 17 -64 8 -103
-23z"/>
<path d="M3500 5431 c0 -32 50 -174 75 -212 13 -20 34 -39 47 -41 13 -3 130
-31 260 -62 l237 -57 72 36 72 37 857 -1 856 0 76 -36 76 -36 249 60 c136 34
252 61 256 61 28 0 130 242 110 261 -7 6 -256 -75 -663 -216 l-135 -47 -815
-2 -815 -2 -360 122 c-198 67 -380 129 -404 138 -54 20 -51 20 -51 -3z"/>
<path d="M3510 5128 c0 -2 7 -28 15 -58 21 -80 20 -96 -31 -300 -61 -247 -58
-255 116 -284 430 -71 607 -79 1644 -74 l861 4 205 28 c307 41 419 62 440 81
35 32 33 66 -14 250 -51 197 -53 209 -30 284 22 76 14 80 -30 12 -44 -70 -29
-62 -343 -162 -111 -35 -200 -65 -199 -66 1 -2 74 9 162 23 268 42 249 42 273
3 25 -41 121 -281 121 -302 0 -18 -42 -33 -115 -42 -27 -4 -117 -18 -200 -31
-173 -28 -258 -32 -280 -14 -8 7 -55 72 -104 144 -55 80 -101 138 -120 149
-30 18 -73 19 -761 19 -695 0 -731 -1 -761 -18 -21 -12 -65 -68 -123 -156 -59
-89 -100 -141 -117 -148 -21 -9 -58 -7 -170 9 -79 11 -193 28 -254 36 -143 21
-159 27 -152 64 9 44 114 293 132 310 13 14 29 13 152 -7 76 -12 163 -24 193
-27 68 -6 64 -5 -190 74 -107 34 -204 66 -215 72 -11 5 -37 37 -59 69 -33 51
-46 68 -46 58z m2175 -518 l0 -135 -565 0 -565 0 -3 115 c-1 63 0 125 3 138
l5 22 563 -2 562 -3 0 -135z"/>
<path d="M4660 4623 c-13 -37 -25 -74 -28 -80 -2 -7 3 -13 11 -13 8 0 17 9 20
20 7 27 51 27 71 -1 8 -12 19 -18 24 -15 14 8 -43 150 -61 154 -11 2 -22 -17
-37 -65z m43 -31 c-21 -5 -25 2 -17 34 l7 29 13 -30 c10 -25 10 -31 -3 -33z"/>
<path d="M4790 4610 c0 -61 3 -81 13 -78 6 3 14 15 15 29 6 41 18 42 42 5 12
-20 28 -36 36 -36 19 0 18 4 -13 51 l-26 40 22 30 c33 45 15 50 -24 7 l-34
-36 -3 31 c-2 17 -9 32 -15 35 -10 3 -13 -17 -13 -78z"/>
<path d="M4930 4610 c0 -64 3 -80 15 -80 10 0 15 10 15 30 0 27 3 30 29 30 16
0 37 7 45 16 38 37 1 84 -66 84 l-38 0 0 -80z m78 51 c23 -14 10 -46 -21 -49
-24 -3 -27 0 -27 27 0 32 19 41 48 22z"/>
<path d="M5160 4638 c-16 -29 -30 -56 -30 -60 0 -5 14 -8 30 -8 23 0 30 -4 30
-20 0 -11 7 -20 15 -20 8 0 15 9 15 19 0 11 6 22 13 25 10 5 10 7 0 12 -8 3
-13 25 -13 55 0 66 -21 65 -60 -3z m30 -23 c0 -15 -6 -25 -15 -25 -12 0 -13 4
-3 25 6 14 13 25 15 25 1 0 3 -11 3 -25z"/>
<path d="M5272 4678 c-18 -18 -15 -113 4 -132 42 -43 91 5 80 79 -9 57 -52 85
-84 53z m56 -63 c4 -54 -9 -75 -33 -55 -18 15 -20 81 -3 98 21 21 33 7 36 -43z"/>
<path d="M5392 4678 c-13 -13 -16 -38 -5 -38 3 0 14 7 24 16 10 9 23 13 28 9
20 -12 12 -37 -24 -76 -19 -22 -35 -44 -35 -49 0 -6 25 -10 55 -10 30 0 55 5
55 10 0 6 -13 10 -30 10 -37 0 -38 10 -5 48 40 48 29 92 -25 92 -14 0 -31 -5
-38 -12z"/>
<path d="M5520 4673 c0 -10 -3 -28 -6 -40 -6 -21 -3 -23 30 -23 33 0 36 -2 36
-30 0 -31 -17 -39 -37 -19 -6 6 -17 9 -23 7 -20 -6 17 -38 44 -38 29 0 46 18
46 50 0 32 -17 50 -47 50 -14 0 -23 6 -23 15 0 15 5 17 44 19 11 1 21 7 23 14
3 8 -9 12 -41 12 -37 0 -46 -3 -46 -17z"/>
<path d="M3968 4201 c-3 -78 -6 -93 -27 -115 -37 -40 -81 -48 -239 -44 -78 2
-142 0 -142 -4 0 -20 252 -231 368 -308 169 -113 318 -186 507 -249 266 -89
473 -118 765 -108 204 7 358 31 533 83 328 99 621 268 867 502 l85 81 -150 1
c-229 2 -257 19 -264 166 l-3 84 -1148 0 -1148 0 -4 -89z"/>
</g>
</svg>
